<svg width="20" height="20" viewBox="0 0 20 20" fill="none" xmlns="http://www.w3.org/2000/svg">
<path d="M16.3644 18.8532V11.083L12.2693 15.2797C11.8781 15.6805 11.5011 16.0982 11.0959 16.4822C10.9144 16.6536 10.6882 16.6246 10.4644 16.6246H8.26367C8.00919 16.6246 7.79239 16.4025 7.79239 16.1417V13.6377C7.79239 13.4759 7.84659 13.331 7.95733 13.2127C8.41917 12.7249 8.89513 12.2516 9.36167 11.7735C10.2311 10.8825 11.1006 9.99151 11.97 9.10048C12.8089 8.24084 13.6477 7.38364 14.4842 6.524L15.6057 5.37463C15.6057 5.37221 15.6081 5.37221 15.6104 5.3698C15.6269 5.3529 15.6434 5.33599 15.6599 5.31909L16.3668 4.5947V1.05236C16.3668 0.680496 16.2348 0.327966 15.905 0.132364C15.6151 -0.0366624 15.2499 0.00438745 14.9271 0.00438745H5.41724C5.32064 0.00438745 5.22167 0.00197276 5.12507 0.00438745C4.9837 0.00921702 4.88238 0.0768266 4.78813 0.173414C4.46532 0.504224 4.14486 0.832633 3.82206 1.16344C3.28956 1.70913 2.75939 2.25245 2.2269 2.79815C1.73443 3.30283 1.23963 3.8099 0.747162 4.31458L0.27589 4.79753C0.191063 4.88446 0.0779633 4.97622 0.0308404 5.08971C-0.00450325 5.17905 0.000208815 5.26357 0.000208815 5.35532V18.8678V19.0465C0.0119902 19.5729 0.412552 19.9858 0.926207 19.9979C1.10528 20.0027 1.28436 19.9979 1.46107 19.9979H14.8069C15.0142 19.9979 15.2192 20.0003 15.4266 19.9979C15.9284 19.9906 16.3337 19.6018 16.362 19.0851C16.3691 19.0078 16.3644 18.9306 16.3644 18.8533L16.3644 18.8532ZM5.45254 5.22947C5.45254 5.42506 5.28996 5.59167 5.0991 5.59167H1.97237C1.91346 5.59167 1.85691 5.57718 1.80979 5.55062H1.80743C1.80743 5.55062 1.80508 5.55062 1.80508 5.5482C1.77445 5.5313 1.74853 5.51198 1.72261 5.48784C1.66841 5.4323 1.63543 5.36227 1.626 5.28742V5.285V5.28259C1.62364 5.26569 1.62129 5.24878 1.62129 5.22947C1.61893 5.15703 1.64014 5.087 1.68019 5.03146V5.02905C1.69198 5.00973 1.70847 4.99041 1.72496 4.97351C1.85456 4.8407 1.98415 4.71031 2.11139 4.5775C2.6722 4.00279 3.23533 3.4257 3.79613 2.85099C4.14957 2.49121 4.50067 2.12898 4.85173 1.76922C5.0685 1.54707 5.45493 1.71126 5.45493 2.02517V5.22943L5.45254 5.22947Z" fill="#191414"/>
<path d="M17.7759 8.27227L15.66 10.4406C15.6129 10.4889 15.5634 10.5396 15.5163 10.5903C14.7764 11.3486 14.0365 12.1068 13.299 12.8625C12.6605 13.5169 12.0196 14.1737 11.381 14.8281C11.1101 15.1058 10.8273 15.3762 10.5634 15.6587H8.7373V13.7801L9.3617 13.1402C9.97197 12.5148 10.5846 11.8894 11.1949 11.2616L13.4121 8.9894C14.0506 8.33504 14.6915 7.67825 15.3301 7.02384C15.4385 6.91277 15.5516 6.80169 15.6623 6.69061C15.7589 6.59403 15.8556 6.49744 15.9522 6.39844C15.9734 6.42017 15.9946 6.4419 16.0158 6.46364L16.3692 6.82584C16.8357 7.30879 17.3046 7.78928 17.7759 8.27223L17.7759 8.27227Z" fill="#1DB954"/>
<path d="M20 5.80212C20 5.82143 19.9976 5.84317 19.9976 5.86248C19.9929 5.8818 19.9882 5.92527 19.9788 5.95666C19.9764 5.96149 19.974 5.96632 19.9693 5.97356C19.9528 6.00254 19.9387 6.03393 19.9222 6.0629C19.9175 6.06773 19.9081 6.08222 19.8986 6.09429C19.8892 6.10636 19.8798 6.11602 19.868 6.12568C19.392 6.61345 18.9161 7.10122 18.4401 7.58899C17.8298 6.96116 17.2172 6.33577 16.6069 5.71037C17.0428 5.26366 17.4811 4.81453 17.917 4.36782C17.9523 4.3316 17.9853 4.2978 18.0207 4.26158C18.0254 4.25675 18.0301 4.25192 18.0325 4.2495C18.0325 4.24709 18.0513 4.23019 18.0654 4.2157C18.0654 4.2157 18.0678 4.2157 18.0678 4.21328C18.1031 4.18914 18.1644 4.16982 18.1997 4.14085C18.2162 4.13602 18.2351 4.12877 18.2516 4.12636C18.2634 4.12394 18.2846 4.12153 18.2987 4.1167H18.4118H18.4142C18.4354 4.12153 18.4566 4.12877 18.4613 4.12877C18.4801 4.1336 18.499 4.14085 18.5178 4.14809C18.5508 4.16499 18.5838 4.1819 18.6144 4.20363C18.6215 4.20846 18.6357 4.22294 18.6451 4.23019L18.6474 4.2326C18.6498 4.23502 18.6498 4.23502 18.6521 4.23743C18.6592 4.24468 18.6639 4.24951 18.671 4.25675C18.9632 4.54893 19.2506 4.85075 19.5381 5.14535C19.6488 5.25884 19.7596 5.36991 19.868 5.4834C19.8703 5.48823 19.8892 5.50513 19.901 5.51962C19.8868 5.5003 19.8727 5.47374 19.908 5.52687C19.9057 5.52445 19.9033 5.52204 19.901 5.51962C19.9057 5.52445 19.908 5.52928 19.9104 5.5317C19.9222 5.55101 19.9339 5.57033 19.9457 5.58965C19.9575 5.60896 19.9764 5.68623 19.974 5.65243C19.974 5.65484 19.974 5.65726 19.9764 5.65726C19.9834 5.67899 19.9881 5.70314 19.9929 5.72487C19.9929 5.74901 19.9999 5.78282 19.9999 5.80214L20 5.80212Z" fill="#1DB954"/>
</svg>
