<svg width="21" height="20" viewBox="0 0 21 20" fill="none" xmlns="http://www.w3.org/2000/svg">
<path d="M20.0674 17.9479L7.4384 19.9898C6.8368 20.0882 6.29853 19.4974 6.25782 18.6994L5.54767 5.49994C5.50243 4.6604 6.02261 3.96078 6.65587 4.00224L19.3663 4.85733C19.8955 4.8936 20.3207 5.44293 20.3659 6.14255L20.9947 16.4502C21.0399 17.1965 20.6328 17.8598 20.0719 17.9531L20.0674 17.9479Z" fill="black"/>
<path d="M3.54443 0.433616L1.01179 14.9951C0.939195 15.4015 1.16504 15.7866 1.43524 15.7277L4.57282 15.4924C4.81882 15.4764 5.00837 15.1609 5.0003 14.7866L4.77446 4.54057C4.7422 3.46035 5.32293 2.56731 6.02868 2.62078L16.1956 3.43362C16.3166 3.44431 16.4375 3.3641 16.5142 3.21436L17.1151 2.06463C17.3086 1.6903 17.1473 1.13415 16.8328 1.11276L3.93159 0.000460635C3.75414 -0.0102346 3.59283 0.166236 3.54443 0.433616Z" fill="#1DB954"/>
</svg>
