<svg width="20" height="20" viewBox="0 0 20 20" fill="none" xmlns="http://www.w3.org/2000/svg">
<path d="M3.71894 14.3843H4.9162C4.91167 14.4728 4.90277 14.5604 4.90277 14.6502C4.90277 17.4866 7.21055 19.7943 10.0468 19.7943C12.8831 19.7943 15.1909 17.4861 15.1909 14.6502C15.1909 14.5604 15.1818 14.4731 15.1774 14.3843H15.2893C17.8909 14.3843 20 12.1903 20 9.58869C20 6.9871 17.8908 4.79309 15.2893 4.79309C14.7782 4.79309 14.2876 4.87685 13.8268 5.02745C13.7751 2.24221 11.5026 0 8.70508 0C5.87516 0 3.58114 2.29403 3.58114 5.12394C3.58114 5.70504 3.67921 6.26327 3.85755 6.7838C3.8113 6.78205 3.76576 6.77682 3.71899 6.77682C1.66508 6.77682 0 8.52673 0 10.5806C0 12.6346 1.66508 14.3846 3.71899 14.3846L3.71894 14.3843ZM10.0468 18.7934C7.76203 18.7934 5.90325 16.9347 5.90325 14.6499C5.90325 12.3651 7.76203 10.5067 10.0468 10.5067C12.3316 10.5067 14.1904 12.3655 14.1904 14.6502C14.1904 16.935 12.3314 18.7934 10.0468 18.7934Z" fill="#191414"/>
<path d="M9.7288 17.496C9.91639 17.6836 10.2487 17.6836 10.4362 17.496L12.6981 15.2341C12.8936 15.0387 12.8936 14.722 12.6981 14.5267C12.5027 14.3312 12.186 14.3312 11.9907 14.5267L10.5716 15.9458L10.5716 12.2969C10.5716 12.0207 10.3474 11.7966 10.0714 11.7966C9.79512 11.7966 9.57107 12.0208 9.57107 12.2969L9.57107 15.9232L8.17433 14.5265C8.07644 14.4286 7.9487 14.3799 7.82062 14.3799C7.69253 14.3799 7.56462 14.4288 7.4669 14.5265C7.27146 14.722 7.27146 15.0387 7.4669 15.2339L9.7288 17.496Z" fill="#1DB954"/>
</svg>
