<svg width="20" height="20" viewBox="0 0 20 20" fill="none" xmlns="http://www.w3.org/2000/svg">
<path d="M19.3683 8.36843H17.9157C17.7472 7.77896 17.5156 7.18952 17.1999 6.6632L18.2315 5.63157C18.4631 5.37899 18.4631 4.97898 18.2315 4.72638L16.2737 2.76855C16.0211 2.51596 15.6211 2.51596 15.3685 2.76855L14.3369 3.80017C13.8106 3.50544 13.2211 3.27385 12.6105 3.10543V1.63162C12.6105 1.27374 12.3367 1 11.9788 1H9.17883C8.82095 1 8.54721 1.27373 8.54721 1.63162V3.0843C7.93675 3.25274 7.36829 3.48434 6.8208 3.80006L5.81031 2.78956C5.55772 2.53697 5.15771 2.53697 4.90511 2.78956L2.94728 4.74739C2.71569 4.97898 2.71569 5.39999 2.94728 5.65259L3.85248 6.55778C4.02092 6.26305 4.29466 6.03146 4.63139 5.86304C4.88398 5.73675 5.17873 5.65245 5.47343 5.65245C5.89444 5.65245 6.31546 5.79989 6.65234 6.05249L8.27345 7.29457C8.92604 6.81039 9.70496 6.51566 10.5682 6.51566C12.7156 6.51566 14.4629 8.26304 14.4629 10.4104C14.4629 12.558 12.7367 14.3056 10.5682 14.3056C9.70496 14.3056 8.90507 14.0108 8.27345 13.5266L6.65234 14.7687C6.31547 15.0213 5.89444 15.1688 5.47343 15.1688C5.1787 15.1688 4.88395 15.1056 4.63139 14.9793C4.31566 14.8319 4.04191 14.6004 3.85248 14.3056L2.96826 15.1898C2.71567 15.4214 2.71567 15.8424 2.96826 16.095L4.92609 18.0528C5.17868 18.3054 5.57869 18.3054 5.83129 18.0528L6.86291 17.0212C7.38923 17.3159 7.97871 17.5475 8.58931 17.7159V19.1686C8.58931 19.5265 8.86304 19.8002 9.22093 19.8002H12C12.3579 19.8002 12.6316 19.5265 12.6316 19.1686V17.7159C13.2421 17.5475 13.8105 17.3159 14.358 17.0002L15.3685 18.0107C15.6211 18.2632 16.0211 18.2632 16.2737 18.0107L18.2315 16.0528C18.4841 15.8212 18.4841 15.4002 18.2315 15.1476L17.1999 14.116C17.4946 13.5897 17.7472 13.0002 17.9157 12.3896H19.3683C19.7052 12.3896 20 12.1159 20 11.758L19.9998 9.00025C19.9998 8.66338 19.7051 8.36863 19.3682 8.36863L19.3683 8.36843Z" fill="#191414"/>
<path d="M4.90512 13.2315C4.90512 13.4421 5.03141 13.6525 5.22085 13.7578C5.41029 13.8631 5.66304 13.842 5.83131 13.6947L9.51554 10.8737C9.66298 10.7684 9.74713 10.5999 9.74713 10.4105C9.74713 10.2211 9.66298 10.0526 9.51554 9.94733L5.83146 7.12629C5.72616 7.04215 5.59987 7 5.47358 7C5.38943 7 5.30514 7.021 5.22099 7.06315C5.03155 7.16844 4.90526 7.35788 4.90526 7.58947V8.87369H0.484176C0.231588 8.87369 0 9.08427 0 9.35786V11.5053C0 11.7579 0.210588 11.9895 0.484176 11.9895H4.90526L4.90512 13.2315Z" fill="#1DB954"/>
</svg>
