<svg width="20" height="20" viewBox="0 0 20 20" fill="none" xmlns="http://www.w3.org/2000/svg">
<path d="M13.005 11.7771C12.1306 11.4508 11.1313 11.2876 10.1634 11.2876C9.19523 11.2876 8.19607 11.4508 7.32167 11.7771C7.04061 11.875 6.72836 11.8423 6.44728 11.6465C6.19741 11.4834 6.0413 11.1897 6.0413 10.8634L6.04115 3.06443C6.04115 2.6402 6.29102 2.28131 6.66568 2.15074C7.07167 1.98759 7.04049 2.02019 7.22779 1.95499C7.25899 1.82445 7.07166 1.0413 7.7899 0.715018C8.38322 0.45392 8.97654 0.258171 9.60107 0.160217C7.91485 -0.231443 6.13471 0.0950189 4.60454 1.1391C3.26178 2.05279 2.10646 3.48868 2.16884 5.218C2.16884 5.57689 2.16884 6.09908 1.88778 6.65373C1.54432 7.27371 1.10713 7.92631 0.545017 8.64426C0.0454379 9.29686 -0.110685 9.88423 0.0766108 10.3737C0.232741 10.8632 0.66993 11.1242 0.982177 11.2548C0.669916 12.2664 0.982177 13.2127 1.29444 13.539C0.826031 14.681 1.38817 15.6275 2.32495 15.7906C4.26103 16.1169 4.79197 16.378 4.94809 16.4758V19.6737C4.94809 19.8368 5.07303 20 5.26036 20H11.8181C11.9742 20 12.1304 19.8368 12.1304 19.6737C12.1304 19.6411 12.1304 17.2589 12.1928 15.9864C12.3177 13.8979 13.879 14.2569 15.0658 11.3529C14.5662 11.4508 14.0976 11.5486 13.6604 11.7445C13.4106 11.8423 13.192 11.8423 13.0047 11.777L13.005 11.7771Z" fill="black"/>
<path d="M19.7502 2.77123C19.6253 2.73863 19.5317 2.67328 19.4068 2.64069V9.39552C19.4068 9.72182 19.2507 10.0481 18.9696 10.2113C18.7197 10.3744 18.3763 10.407 18.0952 10.2765C17.4081 9.95016 16.6587 9.787 15.9092 9.787C15.1598 9.787 14.4103 9.95015 13.7232 10.2765C13.5047 10.3744 13.2237 10.3744 12.9738 10.2765C12.2867 9.95016 11.5373 9.787 10.7566 9.787C10.0072 9.787 9.22654 9.95015 8.57066 10.2765C8.25839 10.407 7.91495 10.3744 7.66509 10.1785C7.41522 10.0154 7.2591 9.68905 7.2591 9.36277L7.25925 2.64062C7.13431 2.67322 7.00938 2.73857 6.91579 2.77117C6.79086 2.80377 6.69727 2.93432 6.69727 3.06487V10.8312C6.69727 10.9291 6.72846 11.0269 6.8222 11.0923C6.91593 11.1575 7.00952 11.1575 7.10326 11.1249C9.00817 10.4069 11.3192 10.4069 13.2238 11.1249C13.2862 11.1575 13.3799 11.1575 13.4423 11.1249C15.3784 10.4069 17.6582 10.4069 19.5941 11.1249C19.6879 11.1575 19.7814 11.1575 19.8752 11.0923C19.9689 11.0271 20.0001 10.9291 20.0001 10.8312L19.9998 3.06487C19.9686 2.93432 19.8749 2.83637 19.75 2.77117L19.7502 2.77123Z" fill="black"/>
<path d="M7.85254 1.62857V9.39486C7.85254 9.49281 7.91493 9.62321 8.00867 9.65596C8.10241 9.72116 8.196 9.72116 8.28973 9.68856C9.81983 8.97062 11.6624 8.97062 13.1924 9.68856C13.2861 9.72116 13.3797 9.72116 13.4423 9.68856C15.0037 8.97062 16.7837 8.97062 18.345 9.68856C18.4387 9.72116 18.5635 9.72116 18.626 9.65596C18.7198 9.59076 18.7822 9.49281 18.7822 9.39486V1.62857C18.7822 1.49802 18.7198 1.36747 18.5948 1.33487C16.9085 0.551745 15.0036 0.519132 13.3175 1.26967C11.6311 0.51912 9.69499 0.551733 8.04013 1.33502C7.9152 1.36762 7.85281 1.49817 7.85281 1.62857H7.85254ZM14.3164 2.9665C15.3158 2.50965 16.4712 2.50965 17.5017 2.9665C17.6579 3.0317 17.7203 3.2276 17.6579 3.39073C17.5955 3.55388 17.408 3.61908 17.2519 3.55388C16.4087 3.16222 15.4094 3.16222 14.5975 3.55388C14.4414 3.61908 14.2541 3.55388 14.1915 3.39073C14.0668 3.26019 14.1603 3.06444 14.3165 2.9665H14.3164ZM14.3164 5.08756C15.3158 4.63071 16.4712 4.63071 17.5017 5.08756C17.6579 5.15275 17.7203 5.34865 17.6579 5.51179C17.5955 5.67494 17.408 5.74014 17.2519 5.67494C16.4087 5.28328 15.4094 5.28328 14.5975 5.67494C14.4414 5.74014 14.2541 5.67494 14.1915 5.51179C14.0668 5.34864 14.1603 5.15275 14.3165 5.08756H14.3164ZM14.3164 7.20861C15.3158 6.75177 16.4712 6.75177 17.5017 7.20861C17.6579 7.27381 17.7203 7.46971 17.6579 7.63285C17.5955 7.796 17.408 7.8612 17.2519 7.796C16.4087 7.40434 15.4094 7.40434 14.5975 7.796C14.4414 7.8612 14.2541 7.796 14.1915 7.63285C14.0668 7.46955 14.1603 7.2738 14.3165 7.20861H14.3164ZM9.13259 2.96665C10.1319 2.5098 11.2874 2.5098 12.3179 2.96665C12.474 3.03185 12.5364 3.22775 12.474 3.39089C12.4116 3.55403 12.2241 3.61923 12.068 3.55403C11.2248 3.16237 10.2255 3.16237 9.41367 3.55403C9.25754 3.61923 9.07021 3.55403 9.00768 3.39089C8.91409 3.26034 8.97648 3.06459 9.13261 2.96665H9.13259ZM9.13259 5.08771C10.1319 4.63086 11.2874 4.63086 12.3179 5.08771C12.474 5.15291 12.5364 5.34881 12.474 5.51194C12.4116 5.67509 12.2241 5.74029 12.068 5.67509C11.2248 5.28343 10.2255 5.28343 9.41367 5.67509C9.25754 5.74029 9.07021 5.67509 9.00768 5.51194C8.91409 5.3488 8.97648 5.1529 9.13261 5.08771H9.13259ZM9.13259 7.20877C10.1319 6.75192 11.2874 6.75192 12.3179 7.20877C12.474 7.27397 12.5364 7.46987 12.474 7.633C12.4116 7.79615 12.2241 7.86135 12.068 7.79615C11.2248 7.40449 10.2255 7.40449 9.41367 7.79615C9.25754 7.86135 9.07021 7.79615 9.00768 7.633C8.91409 7.4697 8.97648 7.27396 9.13261 7.20877H9.13259Z" fill="#1DB954"/>
</svg>
