<svg width="20" height="20" viewBox="0 0 20 20" fill="none" xmlns="http://www.w3.org/2000/svg">
<path d="M20 16.2962V3.65004C19.9998 3.47775 19.9313 3.31248 19.8093 3.19067C19.6875 3.06885 19.5224 3.00033 19.35 3H0.65004C0.477585 3.00033 0.312481 3.06885 0.19067 3.19067C0.0686788 3.31249 0.000166841 3.47776 0 3.65004V16.2962C0.000167098 16.4685 0.0686831 16.6337 0.19067 16.7556C0.312494 16.8775 0.477594 16.9461 0.65004 16.9462H19.35C19.5224 16.9461 19.6875 16.8775 19.8093 16.7556C19.9313 16.6337 19.9998 16.4685 20 16.2962ZM18.9479 15.415C18.9479 15.542 18.8974 15.6638 18.8075 15.7537C18.7176 15.8436 18.5958 15.8941 18.4688 15.8941H1.53138C1.26685 15.8941 1.05229 15.6795 1.05229 15.415V4.5314C1.05229 4.2667 1.26686 4.05231 1.53138 4.05231H18.4688C18.5958 4.05231 18.7176 4.10277 18.8075 4.19268C18.8974 4.28242 18.9479 4.4044 18.9479 4.53141V15.415Z" fill="#1DB954"/>
<path d="M2.01074 5.01074H17.9899V14.9357H2.01074V5.01074Z" fill="#191414"/>
</svg>
