<svg width="20" height="20" viewBox="0 0 20 20" fill="none" xmlns="http://www.w3.org/2000/svg">
<path d="M6.35788 7.08107V3.85665C6.35788 2.67651 7.3062 1.72816 8.48638 1.72816C9.66656 1.72816 10.6149 2.67648 10.6149 3.85665V7.08107C11.6476 6.38561 12.3431 5.20543 12.3431 3.85665C12.3431 1.72816 10.6149 0 8.48642 0C6.35792 0 4.62976 1.72819 4.62976 3.85665C4.62991 5.20543 5.30422 6.38557 6.35795 7.08107H6.35788Z" fill="#1DB954"/>
<path d="M15.3357 9.46262C14.8931 9.3994 14.4716 9.58904 14.1977 9.88407C14.0501 9.31502 13.5445 8.89356 12.9332 8.89356C12.5327 8.89356 12.1745 9.0832 11.9427 9.3572C11.7741 8.83034 11.2894 8.45107 10.6993 8.45107C10.3411 8.45107 10.0249 8.59867 9.77199 8.83034V3.89888C9.77199 3.2456 9.30835 2.65551 8.65504 2.5501C7.85417 2.4447 7.17985 3.07697 7.17985 3.83565V12.6027C7.17985 12.7713 6.94802 12.8555 6.86379 12.7081L5.34642 10.411C4.98817 9.88414 4.20847 9.75773 3.61823 10.1582C3.02814 10.5586 2.81735 11.3173 3.17559 11.8442C3.17559 11.8442 7.41158 18.2508 7.43266 18.2719C8.19134 19.3467 9.43471 20.0001 10.8047 20.0001H12.048C13.9026 20.0001 15.5885 18.8622 16.2419 17.1129C16.4315 16.5861 16.4527 16.2278 16.4527 15.8274V10.7905C16.4525 10.158 15.9889 9.54673 15.3356 9.4625L15.3357 9.46262Z" fill="#191414"/>
</svg>
