<svg width="20" height="20" viewBox="0 0 20 20" fill="none" xmlns="http://www.w3.org/2000/svg">
<path d="M18.769 7.53594C19.2159 6.84997 19.3554 6.00823 19.1536 5.2147C18.9519 4.42132 18.4274 3.7484 17.7072 3.35907C17.6833 2.32845 17.1984 1.363 16.3859 0.728614C15.5735 0.09407 14.5194 -0.14243 13.5138 0.0840915C12.5082 0.310613 11.6572 0.976311 11.1953 1.89784C10.678 1.60642 10.0938 1.45418 9.50003 1.45603C8.77768 1.4568 8.07333 1.6807 7.4831 2.09686C6.89291 2.51321 6.44556 3.10156 6.2023 3.78171C5.30179 3.40512 4.2727 3.50441 3.46074 4.04612C2.64894 4.58784 2.16199 5.50001 2.164 6.47603C2.16415 6.63394 2.17735 6.79154 2.20344 6.94714C1.18554 7.35658 0.41715 8.21796 0.126042 9.27573C-0.165074 10.3335 0.0543765 11.4667 0.719336 12.3394C1.38444 13.2121 2.41876 13.7242 3.51601 13.7241H6.19267L5.98473 11.6861C5.78079 11.5882 5.60876 11.4347 5.48812 11.2434C5.36766 11.0518 5.30351 10.8302 5.30336 10.6041V9.08005C5.30366 8.76192 5.43012 8.45686 5.65509 8.23187C5.88006 8.0069 6.18513 7.88045 6.50327 7.88014H7.00326V6.96415C7.00326 6.53539 7.23207 6.13915 7.60327 5.92492C7.97464 5.71054 8.43196 5.71054 8.80333 5.92492C9.17455 6.13915 9.40335 6.53539 9.40335 6.96415V7.88014H10.5914V6.96415C10.5914 6.53539 10.8201 6.13915 11.1914 5.92492C11.5627 5.71054 12.0201 5.71054 12.3913 5.92492C12.7627 6.13915 12.9914 6.53539 12.9914 6.96415V7.88014H13.4913C13.8095 7.88045 14.1145 8.0069 14.3395 8.23187C14.5645 8.45684 14.6911 8.76191 14.6914 9.08005V10.6041C14.6913 10.8303 14.6273 11.0516 14.5068 11.2429C14.3863 11.4343 14.2145 11.5878 14.0107 11.6858L13.805 13.7241H16.4802C17.4448 13.7251 18.3674 13.3298 19.0322 12.6308C19.6968 11.9316 20.045 10.9902 19.9953 10.0268C19.9456 9.06347 19.5021 8.16284 18.769 7.53596L18.769 7.53594Z" fill="#191414"/>
<path d="M13.8913 9.07999V10.604C13.8905 10.8247 13.7119 11.0033 13.4912 11.0041H13.2751L12.9071 14.6521L12.9073 14.652C12.8815 14.9116 12.7596 15.1522 12.5658 15.3269C12.372 15.5014 12.12 15.5975 11.8591 15.5961H11.2591V16.28H11.2593C11.2585 16.5007 11.0799 16.6793 10.8592 16.6801H10.3991V17.4002L10.3993 17.4C10.3985 17.6207 10.2199 17.7995 9.99919 17.8001H8.33921C8.22979 17.8001 8.14124 17.8888 8.14124 17.9981C8.14124 18.1075 8.22979 18.196 8.33921 18.196H11.5232C11.8455 18.196 12.1432 18.368 12.3043 18.647C12.4655 18.9262 12.4655 19.2699 12.3043 19.5491C12.1432 19.8282 11.8455 20.0001 11.5232 20.0001H9.51519C9.29421 20.0001 9.1151 19.821 9.1151 19.6C9.1151 19.3791 9.29419 19.2 9.51519 19.2H11.5232C11.5794 19.1987 11.624 19.1523 11.6233 19.096C11.6234 19.0695 11.613 19.0438 11.5943 19.025C11.5754 19.0062 11.5498 18.9958 11.5232 18.9959H8.33921C7.98257 18.9959 7.65308 18.8058 7.47492 18.4971C7.2966 18.1883 7.2966 17.8079 7.47492 17.499C7.65309 17.1902 7.98257 17.0001 8.33921 17.0001H9.59926V16.6801H9.13522C8.91454 16.6793 8.73592 16.5007 8.73513 16.28V15.5961H8.13512C7.8747 15.5973 7.62335 15.5011 7.43014 15.3264C7.23693 15.1518 7.116 14.9112 7.09114 14.652L6.71915 11.0039H6.50308H6.50324C6.28256 11.0033 6.10378 10.8247 6.10315 10.604V9.07998C6.10376 8.85931 6.28254 8.68068 6.50324 8.68006H7.8032V6.96405C7.8032 6.74307 7.98229 6.56396 8.20313 6.56396C8.42412 6.56396 8.60322 6.74305 8.60322 6.96405V8.68006H11.3913V6.96405C11.3913 6.74307 11.5704 6.56396 11.7912 6.56396C12.0122 6.56396 12.1913 6.74305 12.1913 6.96405V8.68006H13.4913C13.712 8.68067 13.8907 8.8593 13.8914 9.07998L13.8913 9.07999Z" fill="#1DB954"/>
</svg>
