<svg width="20" height="20" viewBox="0 0 20 20" fill="none" xmlns="http://www.w3.org/2000/svg">
<path d="M19.8484 16.8336C19.8484 16.8316 19.8465 16.8293 19.8465 16.8274C19.8211 16.4144 19.484 16.1382 19.0795 16.1382H0.81349C0.552294 16.1382 0.307664 16.2122 0.141238 16.4352C0.0191152 16.5997 0.00216443 16.7916 0.00216443 16.9853V19.014C0.00216443 19.1196 -0.00399929 19.229 0.0044761 19.3342C0.0180864 19.5137 0.0986148 19.6815 0.230111 19.8044C0.361606 19.9274 0.534478 19.9964 0.714482 19.998C0.7819 20.0003 0.849318 19.9937 0.914424 19.9937H18.2955C18.5717 19.9937 18.8476 20.0041 19.1257 19.998C19.2433 19.9985 19.3591 19.9704 19.4634 19.9161C19.5676 19.8618 19.6571 19.7829 19.724 19.6863C19.8357 19.5241 19.8461 19.3427 19.8461 19.1554V16.844C19.848 16.8408 19.8488 16.8372 19.8484 16.8336ZM12.028 18.4789H7.82263C7.58686 18.4789 7.41196 18.2863 7.40118 18.0575C7.39039 17.8286 7.6015 17.6376 7.82263 17.6376H12.0299C12.266 17.6376 12.4406 17.8302 12.4514 18.0586C12.4621 18.2871 12.2491 18.4801 12.0276 18.4801L12.028 18.4789Z" fill="#1DB954"/>
<path d="M18.7109 5.99632V5.96473C18.6939 5.3075 18.1588 4.81246 17.5101 4.80899C17.3413 4.80899 17.1749 4.80475 17.0065 4.80475H15.0684V3.2892H16.6148C17.0771 3.2892 17.5393 3.30384 17.9989 3.29344C18.3233 3.28496 18.6288 3.06769 18.6962 2.73907C18.7236 2.60847 18.7132 2.47595 18.7132 2.34304V0.695733C18.704 0.511774 18.6253 0.338157 18.4931 0.209896C18.3609 0.0816353 18.185 0.00827271 18.0009 0.00460368C17.9674 0.00460368 17.9334 0.000365966 17.9019 0.000365966H11.1215C10.9047 0.000365966 10.6878 -0.0123471 10.494 0.112087C10.2628 0.257324 10.1569 0.50157 10.1569 0.767003V2.5006C10.1569 2.72828 10.2093 2.94749 10.3842 3.10737C10.5254 3.23152 10.7082 3.29783 10.8962 3.29305C11.0753 3.29305 11.2521 3.28882 11.4294 3.28882H13.8013V4.80552H2.42542C2.38689 4.80552 2.34837 4.80976 2.30984 4.80976C2.1353 4.8106 1.96311 4.85015 1.80569 4.92556C1.64828 5.00097 1.50955 5.11036 1.39951 5.24586C1.22999 5.46168 1.13909 5.72883 1.14178 6.00325V15.1374C1.14243 15.1644 1.1484 15.191 1.15935 15.2157C1.1703 15.2404 1.18601 15.2627 1.20558 15.2813C1.22516 15.2999 1.24821 15.3145 1.27342 15.3241C1.29864 15.3338 1.32551 15.3384 1.35251 15.3377H17.8052C18.0267 15.3377 18.2497 15.3481 18.4709 15.342C18.4817 15.342 18.4901 15.342 18.5005 15.342C18.5559 15.3416 18.6089 15.3196 18.6483 15.2806C18.6877 15.2417 18.7103 15.1889 18.7113 15.1336V7.10428C18.7113 6.7356 18.724 6.365 18.7113 5.99593L18.7109 5.99632Z" fill="#191414"/>
</svg>
