<svg width="20" height="21" viewBox="0 0 20 21" fill="none" xmlns="http://www.w3.org/2000/svg">
<path d="M3.68007 3.04981C3.5141 3.0527 3.35597 3.12098 3.24007 3.23981C3.18259 3.2977 3.13711 3.36637 3.10622 3.44187C3.07533 3.51737 3.05965 3.59823 3.06007 3.67981V8.78981C3.06005 8.95518 3.12505 9.11392 3.24104 9.23179C3.35703 9.34965 3.51472 9.41718 3.68007 9.41981H8.79007C8.95556 9.41479 9.11291 9.3468 9.22999 9.22973C9.34706 9.11265 9.41505 8.9553 9.42007 8.78981V3.67981C9.41717 3.51384 9.34889 3.35572 9.23007 3.23981C9.17372 3.1796 9.10557 3.13166 9.02986 3.09897C8.95416 3.06628 8.87253 3.04954 8.79007 3.04981H3.68007ZM11.2101 3.04981C11.1276 3.04954 11.046 3.06628 10.9703 3.09897C10.8946 3.13166 10.8264 3.1796 10.7701 3.23981C10.7103 3.29652 10.6627 3.36475 10.63 3.44037C10.5974 3.51599 10.5804 3.59744 10.5801 3.67981V8.78981C10.5798 8.87227 10.5965 8.9539 10.6292 9.0296C10.6619 9.10531 10.7099 9.17346 10.7701 9.22981C10.8268 9.28954 10.895 9.33718 10.9706 9.36983C11.0462 9.40248 11.1277 9.41949 11.2101 9.41981H16.3201C16.486 9.41691 16.6442 9.34863 16.7601 9.22981C16.8189 9.17296 16.8654 9.10449 16.8963 9.02874C16.9273 8.95299 16.9422 8.87162 16.9401 8.78981V3.67981C16.9449 3.59767 16.9312 3.51551 16.9001 3.43936C16.8689 3.36321 16.8211 3.29502 16.7601 3.23981C16.6442 3.12098 16.486 3.0527 16.3201 3.04981H11.2101ZM3.68007 10.5798C3.51472 10.5824 3.35703 10.65 3.24104 10.7678C3.12505 10.8857 3.06005 11.0444 3.06007 11.2098V16.3198C3.05965 16.4014 3.07533 16.4822 3.10622 16.5577C3.13711 16.6333 3.18259 16.7019 3.24007 16.7598C3.35597 16.8786 3.5141 16.9469 3.68007 16.9498H8.79007C8.87253 16.9501 8.95416 16.9333 9.02986 16.9006C9.10557 16.868 9.17372 16.82 9.23007 16.7598C9.34889 16.6439 9.41717 16.4858 9.42007 16.3198V11.2098C9.41505 11.0443 9.34706 10.887 9.22999 10.7699C9.11291 10.6528 8.95556 10.5848 8.79007 10.5798H3.68007ZM11.2101 10.5798C11.1277 10.5801 11.0462 10.5971 10.9706 10.6298C10.895 10.6624 10.8268 10.7101 10.7701 10.7698C10.7099 10.8262 10.6619 10.8943 10.6292 10.97C10.5965 11.0457 10.5798 11.1273 10.5801 11.2098V13.7598C10.5814 13.929 10.6497 14.0908 10.7701 14.2098C10.8876 14.325 11.0455 14.3896 11.2101 14.3898H13.1401V16.3198C13.1379 16.4016 13.1528 16.483 13.1838 16.5587C13.2148 16.6345 13.2612 16.703 13.3201 16.7598C13.439 16.8801 13.6008 16.9485 13.7701 16.9498H16.3201C16.486 16.9469 16.6442 16.8786 16.7601 16.7598C16.8211 16.7046 16.8689 16.6364 16.9001 16.5603C16.9312 16.4841 16.9449 16.4019 16.9401 16.3198V13.7598C16.9414 13.678 16.9263 13.5968 16.8956 13.521C16.8649 13.4451 16.8193 13.3762 16.7615 13.3184C16.7036 13.2605 16.6348 13.2149 16.5589 13.1842C16.4831 13.1536 16.4019 13.1385 16.3201 13.1398H14.3901V11.2098C14.3901 11.0444 14.3251 10.8857 14.2091 10.7678C14.0931 10.65 13.9354 10.5824 13.7701 10.5798H11.2101Z" fill="#191414"/>
<path d="M0.63 0C0.462794 0.00174339 0.302283 0.0659478 0.18 0.18C0.0659478 0.302283 0.00174339 0.462794 0 0.63L0 5C0.00505907 5.10798 0.0369708 5.213 0.0928459 5.30555C0.148721 5.39809 0.226795 5.47524 0.32 5.53C0.412732 5.58354 0.517923 5.61172 0.625 5.61172C0.732077 5.61172 0.837268 5.58354 0.93 5.53C1.0251 5.47745 1.10473 5.40082 1.16089 5.3078C1.21705 5.21478 1.24778 5.10864 1.25 5V1.25H5C5.08318 1.25119 5.16577 1.2359 5.243 1.205C5.32024 1.17411 5.39059 1.12823 5.45 1.07C5.54733 0.944555 5.59694 0.788622 5.59 0.63C5.58826 0.462794 5.52405 0.302283 5.41 0.18C5.29802 0.0747558 5.15326 0.0112047 5 0L0.63 0Z" fill="#1DB954"/>
<path d="M15.0001 0C14.8356 0.000237369 14.6777 0.064842 14.5601 0.18C14.4398 0.298981 14.3715 0.46078 14.3701 0.63C14.373 0.79597 14.4413 0.954092 14.5601 1.07C14.617 1.12888 14.6854 1.17529 14.7612 1.20628C14.8369 1.23727 14.9183 1.25216 15.0001 1.25H18.7101V5C18.7065 5.08348 18.7207 5.16676 18.7518 5.24434C18.7828 5.32191 18.83 5.39201 18.8901 5.45C18.9468 5.50974 19.0151 5.55737 19.0907 5.59002C19.1663 5.62268 19.2477 5.63968 19.3301 5.64C19.4993 5.63865 19.6611 5.57034 19.7801 5.45C19.8456 5.39402 19.8989 5.3252 19.9368 5.2478C19.9746 5.1704 19.9962 5.08606 20.0001 5V0.63C20.0001 0.464632 19.9351 0.305886 19.8191 0.188021C19.7032 0.0701567 19.5455 0.00262489 19.3801 0L15.0001 0Z" fill="#1DB954"/>
<path d="M0.62 14.4C0.53754 14.3997 0.455909 14.4165 0.380205 14.4492C0.304501 14.4818 0.236348 14.5298 0.18 14.59C0.0718178 14.7 0.00776911 14.8459 0 15L0 19.34C0.00420055 19.5037 0.0682346 19.6603 0.18 19.78C0.235979 19.8455 0.304795 19.8988 0.382196 19.9366C0.459596 19.9745 0.543935 19.996 0.63 20H5C5.08871 20.0112 5.1788 20.0035 5.26428 19.9772C5.34975 19.9509 5.42866 19.9068 5.49575 19.8477C5.56283 19.7885 5.61657 19.7158 5.65337 19.6343C5.69018 19.5528 5.70921 19.4644 5.70921 19.375C5.70921 19.2856 5.69018 19.1972 5.65337 19.1157C5.61657 19.0342 5.56283 18.9615 5.49575 18.9023C5.42866 18.8432 5.34975 18.7991 5.26428 18.7728C5.1788 18.7465 5.08871 18.7388 5 18.75H1.25V15C1.25119 14.9168 1.2359 14.8342 1.205 14.757C1.17411 14.6798 1.12823 14.6094 1.07 14.55C0.94475 14.4442 0.783676 14.3905 0.62 14.4Z" fill="#1DB954"/>
<path d="M19.3701 14.3999C19.2008 14.4013 19.039 14.4696 18.9201 14.5899C18.8088 14.7132 18.7481 14.8739 18.7501 15.0399V18.7499H15.0001C14.9182 18.7477 14.8369 18.7626 14.7611 18.7936C14.6854 18.8246 14.6169 18.871 14.5601 18.9299C14.4741 19.0179 14.4158 19.1292 14.3924 19.25C14.369 19.3708 14.3814 19.4958 14.4282 19.6096C14.475 19.7234 14.5541 19.821 14.6557 19.8903C14.7573 19.9597 14.877 19.9978 15.0001 19.9999H19.3401C19.4219 20.0013 19.5031 19.9861 19.5789 19.9555C19.6547 19.9248 19.7236 19.8792 19.7815 19.8213C19.8393 19.7635 19.8849 19.6946 19.9156 19.6188C19.9463 19.5429 19.9614 19.4617 19.9601 19.3799V14.9999C19.9613 14.9167 19.946 14.8341 19.9151 14.7569C19.8842 14.6797 19.8383 14.6093 19.7801 14.5499C19.6652 14.4534 19.5201 14.4003 19.3701 14.3999Z" fill="#1DB954"/>
</svg>
