<svg width="20" height="20" viewBox="0 0 20 20" fill="none" xmlns="http://www.w3.org/2000/svg">
<path d="M0 2V14H20V2H0Z" fill="black"/>
<path d="M7.32134 4.93337C7.31768 4.67702 7.52832 4.43724 7.77438 4.4177V4.418C7.87204 4.41154 7.97144 4.43631 8.05567 4.48828L13.0557 7.48823C13.3521 7.66609 13.3521 8.19291 13.0557 8.37095L8.05567 11.3709C7.76044 11.5466 7.32448 11.287 7.32134 10.9333V4.93337Z" fill="white"/>
<path d="M2.60893 15.9732C2.80251 15.5332 3.23813 15.2231 3.7496 15.2231C4.26108 15.2231 4.69671 15.5334 4.89027 15.9732H18.4997C18.7757 15.9732 18.9996 16.1969 18.9996 16.4731C18.9996 16.7492 18.7759 16.9731 18.4997 16.9731H4.89027C4.6967 17.4131 4.26108 17.7231 3.7496 17.7231C3.23813 17.7231 2.8025 17.4129 2.60893 16.9731H1.49947C1.22342 16.9731 0.999512 16.7493 0.999512 16.4731C0.999512 16.1971 1.22324 15.9732 1.49947 15.9732H2.60893Z" fill="#1DB954"/>
</svg>
