<svg width="20" height="21" viewBox="0 0 20 21" fill="none" xmlns="http://www.w3.org/2000/svg">
<path d="M12.6739 11.7789V5.44207C12.6739 4.95786 12.2739 4.55786 11.7897 4.55786H8.21075C7.72654 4.55786 7.32654 4.95786 7.32654 5.44207V11.7789C8.08443 11.2315 9.01075 10.9368 10.0002 10.9368C10.9897 10.9158 11.916 11.2315 12.6739 11.7789Z" fill="#191414"/>
<path d="M4.44211 8.09473H0.88421C0.4 8.09473 0 8.49473 0 8.97894V14.4526C0 14.9368 0.4 15.3368 0.88421 15.3368H4.44211C4.92632 15.3368 5.32632 14.9368 5.32632 14.4526V8.97894C5.32632 8.49473 4.92632 8.09473 4.44211 8.09473Z" fill="#191414"/>
<path d="M19.1156 1H15.5577C15.0735 1 14.6735 1.4 14.6735 1.88421V14.4526C14.6735 14.9368 15.0735 15.3368 15.5577 15.3368H19.1156C19.5998 15.3368 19.9998 14.9368 19.9998 14.4526V1.88421C19.9998 1.4 19.5998 1 19.1156 1Z" fill="#191414"/>
<path d="M12.8421 17.1264C13.1158 16.6422 13.2842 16.1159 13.2842 15.5264C13.2842 13.7159 11.8106 12.2422 10 12.2422C8.1895 12.2422 6.71582 13.7159 6.71582 15.5264C6.71582 17.3369 8.1895 18.8106 10 18.8106C10.5895 18.8106 11.1158 18.6422 11.6 18.3896L12.9895 19.779C13.1579 19.9475 13.3895 20.0317 13.6211 20.0317C13.8527 20.0317 14.0842 19.9475 14.2527 19.779C14.5895 19.4422 14.5895 18.8738 14.2527 18.5159L12.8421 17.1264ZM8.44214 15.5264C8.44214 14.6632 9.13687 13.9685 10 13.9685C10.8632 13.9685 11.5579 14.6632 11.5579 15.5264C11.5579 16.3896 10.8632 17.0843 10 17.0843C9.13687 17.0843 8.44214 16.3896 8.44214 15.5264Z" fill="#1DB954"/>
</svg>
