<svg width="20" height="20" viewBox="0 0 20 20" fill="none" xmlns="http://www.w3.org/2000/svg">
<path d="M10.0001 9.51862e-05C10.0001 5.15251e-05 10.0001 0 10 6.35911e-10C5.13297 5.77458e-05 1.1662 3.93286 1.11162 8.78764C1.111 8.84342 1.06583 8.88909 1.01005 8.88909C0.452214 8.88909 0 9.3413 0 9.89914V11.667C0 13.2011 1.24369 14.4448 2.77787 14.4448H3.03014C3.1975 14.4448 3.33316 14.3092 3.33316 14.1418V8.88909C3.33316 5.21236 6.32313 2.22239 9.99986 2.22239C13.6766 2.22239 16.6666 5.21236 16.6666 8.88909V13.3149C16.6666 13.6492 16.4994 13.9615 16.2212 14.1469L10.8207 17.747C10.7907 17.767 10.7553 17.7777 10.7192 17.7777H10.0003C9.38667 17.7777 8.88919 18.2752 8.88919 18.8889C8.88919 19.5025 9.38666 20 10.0003 20H11.3729C11.422 20 11.4699 19.9855 11.5107 19.9583L18.4724 15.3169C18.7328 15.1433 18.8891 14.8511 18.8891 14.5381C18.8891 14.4864 18.9317 14.4445 18.9834 14.4445C19.5412 14.4445 20.0002 13.9923 20.0002 13.4345V9.89885C20.0002 9.34102 19.548 8.8888 18.9901 8.8888C18.9344 8.8888 18.8892 8.84313 18.8886 8.78735C18.834 3.93295 14.8674 0.000248438 10.0002 0.000190373C10.0001 0.000190373 10.0001 0.000138847 10.0001 9.51862e-05Z" fill="#1DB954"/>
<path d="M15.5558 10.0001C15.5558 6.93682 13.0636 4.44434 10.0001 4.44434C6.93682 4.44434 4.44434 6.93654 4.44434 10.0001C4.44434 13.0633 6.93654 15.5558 10.0001 15.5558C13.0633 15.5558 15.5558 13.0634 15.5558 10.0001Z" fill="#191414"/>
</svg>
