<svg width="20" height="20" viewBox="0 0 20 20" fill="none" xmlns="http://www.w3.org/2000/svg">
<path d="M20 3.47614V5.38095C20 5.50734 19.9498 5.62842 19.8605 5.71777C19.7713 5.80696 19.6501 5.85711 19.5238 5.85711H0.47615C0.213075 5.85711 0 5.64403 0 5.38096V3.47615C0 3.21324 0.213083 3 0.47615 3H19.5238C19.6501 3 19.7713 3.05016 19.8605 3.13951C19.9498 3.22886 20 3.34992 20 3.47614Z" fill="#191414"/>
<path d="M1.07621 16.2285C0.989345 16.1249 0.945 15.9922 0.952308 15.8571L1.80947 6.33309H4.59052L2.85709 15.9428C2.84183 16.193 2.63156 16.3864 2.38094 16.381H1.42847C1.29543 16.3795 1.16838 16.3247 1.07621 16.2285Z" fill="#1DB954"/>
<path d="M17.1428 15.943L15.4094 6.33329L18.1905 6.33348L19.0476 15.8573C19.0408 15.9771 18.9938 16.0912 18.9143 16.181C18.8221 16.2772 18.6951 16.3322 18.5619 16.3335H17.6096C17.3788 16.3365 17.1805 16.1706 17.1428 15.943Z" fill="#1DB954"/>
</svg>
